<?xml version="1.0" encoding="UTF-8" standalone="no"?>
<svg
   enable-background="new -1163 1657.697 56.693 56.693"
   height="56.693px"
   id="Layer_1"
   version="1.1"
   viewBox="-1163 1657.697 56.693 56.693"
   width="56.693px"
   xml:space="preserve"
   sodipodi:docname="githubicon.svg"
   inkscape:version="1.1.1 (3bf5ae0d25, 2021-09-20)"
   xmlns:inkscape="http://www.inkscape.org/namespaces/inkscape"
   xmlns:sodipodi="http://sodipodi.sourceforge.net/DTD/sodipodi-0.dtd"
   xmlns="http://www.w3.org/2000/svg"
   xmlns:svg="http://www.w3.org/2000/svg"><defs
     id="defs23" /><sodipodi:namedview
     id="namedview21"
     pagecolor="#ffffff"
     bordercolor="#666666"
     borderopacity="1.0"
     inkscape:pageshadow="2"
     inkscape:pageopacity="0.0"
     inkscape:pagecheckerboard="0"
     showgrid="false"
     inkscape:zoom="14.534422"
     inkscape:cx="28.312099"
     inkscape:cy="28.380902"
     inkscape:window-width="1920"
     inkscape:window-height="1009"
     inkscape:window-x="-8"
     inkscape:window-y="-8"
     inkscape:window-maximized="1"
     inkscape:current-layer="g18" /><g
     id="g18"><path
       clip-rule="evenodd"
       d="m -1134.6598,1662.9163 c -13.601,0 -24.63,11.0267 -24.63,24.6299 0,10.8821 7.0573,20.1144 16.8435,23.3713 1.2308,0.2279 1.6829,-0.5345 1.6829,-1.1849 0,-0.587 -0.023,-2.5276 -0.033,-4.5857 -6.8521,1.4901 -8.2979,-2.906 -8.2979,-2.906 -1.1205,-2.8467 -2.7347,-3.6039 -2.7347,-3.6039 -2.2349,-1.5287 0.1685,-1.4972 0.1685,-1.4972 2.473,0.1737 3.7755,2.5385 3.7755,2.5385 2.1967,3.7651 5.7618,2.6765 7.1675,2.0472 0.2211,-1.5917 0.8591,-2.6786 1.5637,-3.2936 -5.4707,-0.6226 -11.2218,-2.7347 -11.2218,-12.1722 0,-2.6888 0.9623,-4.8861 2.538,-6.611 -0.2557,-0.6206 -1.0989,-3.1255 0.2386,-6.5183 0,0 2.0684,-0.6616 6.7747,2.525 1.9648,-0.5458 4.0719,-0.8195 6.165,-0.829 2.093,0.01 4.2017,0.2832 6.17,0.829 4.7012,-3.1866 6.7665,-2.525 6.7665,-2.525 1.3406,3.3928 0.4974,5.8977 0.2417,6.5183 1.5793,1.7249 2.5348,3.9221 2.5348,6.611 0,9.4602 -5.7618,11.5428 -11.2465,12.1527 0.8834,0.7644 1.6704,2.2632 1.6704,4.561 0,3.2955 -0.028,5.9479 -0.028,6.7592 0,0.6556 0.4432,1.4236 1.6915,1.1818 9.7812,-3.2605 16.8296,-12.4896 16.8296,-23.3682 0,-13.6032 -11.0275,-24.6299 -24.6299,-24.6299 z"
       fill-rule="evenodd"
       id="path2"
       style="fill:#ffffff" /></g></svg>
