<?xml version="1.0" encoding="UTF-8" standalone="no"?>
<svg
   height="512"
   viewBox="0 0 512 512"
   width="512"
   version="1.1"
   id="svg6"
   sodipodi:docname="javascript.svg"
   inkscape:version="1.1.1 (3bf5ae0d25, 2021-09-20)"
   xmlns:inkscape="http://www.inkscape.org/namespaces/inkscape"
   xmlns:sodipodi="http://sodipodi.sourceforge.net/DTD/sodipodi-0.dtd"
   xmlns="http://www.w3.org/2000/svg"
   xmlns:svg="http://www.w3.org/2000/svg">
  <defs
     id="defs10" />
  <sodipodi:namedview
     id="namedview8"
     pagecolor="#ffffff"
     bordercolor="#666666"
     borderopacity="1.0"
     inkscape:pageshadow="2"
     inkscape:pageopacity="0.0"
     inkscape:pagecheckerboard="0"
     showgrid="false"
     inkscape:zoom="1.609375"
     inkscape:cx="217.78641"
     inkscape:cy="255.68932"
     inkscape:window-width="1920"
     inkscape:window-height="1009"
     inkscape:window-x="-8"
     inkscape:window-y="-8"
     inkscape:window-maximized="1"
     inkscape:current-layer="svg6" />
  <title
     id="title2" />
  <rect
     style="fill:#000000;fill-opacity:1;stroke-width:71.8515"
     id="rect993"
     width="354.79611"
     height="257.86407"
     x="106.87378"
     y="198.21359" />
  <path
     d="M32,32V480H480V32ZM272,380c0,43.61-25.76,64.87-63.05,64.87-33.68,0-53.23-17.44-63.15-38.49h0l34.28-20.75c6.61,11.73,11.63,21.65,26.06,21.65,12,0,21.86-5.41,21.86-26.46V240h44Zm99.35,63.87c-39.09,0-64.35-17.64-76.68-42h0L329,382c9,14.74,20.75,24.56,41.5,24.56,17.44,0,27.57-7.72,27.57-19.75,0-14.43-10.43-19.54-29.68-28l-10.52-4.52c-30.38-12.92-50.52-29.16-50.52-63.45,0-31.57,24.05-54.63,61.64-54.63,26.77,0,46,8.32,59.85,32.68L396,290c-7.22-12.93-15-18-27.06-18-12.33,0-20.15,7.82-20.15,18,0,12.63,7.82,17.74,25.86,25.56l10.52,4.51c35.79,15.34,55.94,31,55.94,66.16C441.12,424.13,411.35,443.87,371.35,443.87Z"
     id="path4"
     style="fill:#f0db4f;fill-opacity:1" />
</svg>
